<?xml version="1.0" encoding="UTF-8" standalone="no"?>
<svg xmlns:dc="http://purl.org/dc/elements/1.1/" xmlns:cc="http://creativecommons.org/ns#"
	xmlns:rdf="http://www.w3.org/1999/02/22-rdf-syntax-ns#" xmlns:svg="http://www.w3.org/2000/svg"
	xmlns="http://www.w3.org/2000/svg"
	xmlns:sodipodi="http://sodipodi.sourceforge.net/DTD/sodipodi-0.dtd"
	xmlns:inkscape="http://www.inkscape.org/namespaces/inkscape" version="1.1" id="svg2"
	xml:space="preserve" width="4000" height="3333.3333" viewBox="0 0 4000 3333.3333"
	sodipodi:docname="FastAsyncWorldEdit.ai">
	<metadata id="metadata8">
		<rdf:RDF>
			<cc:Work rdf:about="">
				<dc:format>image/svg+xml</dc:format>
                <dc:type rdf:resource="http://purl.org/dc/dcmitype/StillImage" />
			</cc:Work>
		</rdf:RDF>
	</metadata>
    <g>
		<path d="M625.467 2597.73C1083.56 2139.77 1981.05 1240.55 2448.3 773.208C2453.24 768.271 2456.89 762.306 2461.73 757.466C2478.26 742.342 2500.39 721.632 2516.4 707.066C2551.65 676.105 2599.46 687.514 2615.33 706.666C2676.4 767.552 2697.71 788.339 2744 835.199C2757.71 847.435 2777.36 886.266 2755.87 925.332C2744.82 945.076 2710.12 975.989 2710.12 975.989C2710.12 975.989 1309.87 2380.26 847.6 2842.26C820.133 2871.6 769.733 2873.73 740.267 2846.26C697.333 2803.46 654.533 2760.53 611.6 2717.6C589.6 2695.33 585.067 2658.93 598.4 2630.93" fill="#062f4c" fill-rule="nonzero" opacity="1" stroke="none"/>
		<path d="M2190.81 632.003C2237.21 617.337 2285.34 607.603 2333.88 603.47C2359.08 668.803 2396.01 728.803 2437.21 785.07C2503.61 873.736 2584.54 951.203 2674.94 1015.07C2779.21 1088.93 2895.61 1144.8 3016.94 1184.13C3127.88 1220.27 3243.1 1242.8 3359.1 1255.2C3359.02 1267.1 3364.68 1278.99 3364.17 1290.87C3355.92 1482.91 3285.04 1671.94 3155.96 1813.45C3092.22 1883.98 3007.74 1949.13 2925.6 1997C2786.65 2093.67 2577.12 2112.7 2544.59 2111.95C2533.52 2111.69 2522.38 2103.7 2511.08 2103.89C2496.68 1968.96 2468.54 1835.2 2421.34 1707.73C2383.74 1605.73 2333.74 1508 2270.81 1419.07C2206.94 1328.93 2129.88 1248 2041.34 1181.87C1985.21 1140.27 1924.94 1103.33 1859.48 1078.13C1864.54 1013.33 1880.14 949.336 1904.28 888.936C1929.88 826.536 1966.94 767.603 2018.68 723.736C2068.54 681.07 2128.54 651.603 2190.81 632.003" fill="#4c8fcc" fill-rule="nonzero" opacity="1" stroke="none"/>
		<path d="M2435.89 783.274C2446.42 775.007 2454.5 764.42 2464.1 755.353C2472.1 772.153 2489.73 785.066 2501.2 799.332C2521.87 824.266 2547.33 844.266 2570.27 867.066C2615.2 906.932 2660.01 942.635 2709.74 976.368C2697.21 988.768 2685.13 1001.1 2672.73 1013.5C2582.19 949.63 2503.6 873.732 2437.2 785.066" fill="#081d2d" fill-rule="nonzero" opacity="1" stroke="none"/>
		<path d="M2040.54 1181.27C2129.08 1247.4 2206.05 1327.41 2269.78 1417.55C2257.65 1429.81 2244.88 1442.24 2232.75 1454.64C2204.48 1416.78 2178.01 1378.47 2147.08 1342.74C2105.88 1294.74 2062.61 1248.3 2013.41 1208.43C2022.47 1199.5 2031.48 1190.34 2040.54 1181.27" fill="#081d2d" fill-rule="nonzero" opacity="1" stroke="none"/>
		<path d="M3359.07 1255.2C3387.6 1258.27 3416.27 1260.27 3444.8 1262.67C3456.67 1367.33 3443.33 1474 3412.53 1574.53C3363.2 1736.13 3262.53 1879.6 3134.13 1988.53C2998.93 2104.53 2827.07 2178.4 2648.93 2191.33C2605.33 2194.66 2561.33 2194.66 2517.87 2188.93C2516.67 2160.53 2513.73 2132.13 2511.07 2103.86C2653.07 2101.46 2794 2061.33 2916.53 1989.6C2998.67 1941.73 3072.67 1880.13 3136.27 1809.6C3273.33 1659.33 3357.73 1459.33 3359.07 1255.2" fill="#6fc4ee" fill-rule="nonzero" opacity="1" stroke="none"/>
		<path d="M1951.2 1336.13C1966.27 1332.53 1979.87 1342 1988.93 1353.07C2002.67 1366.27 2000.67 1390.53 1986.4 1402.53C1594.8 1794.13 1203.2 2185.73 811.6 2577.33C801.067 2588.93 781.467 2592.53 768.267 2583.33C756.667 2574 743.467 2562.13 745.067 2545.6C745.067 2532 755.733 2522.93 764.667 2514.53C1154.53 2124.4 1544.8 1734.53 1934.67 1344.4C1939.07 1339.87 1945.07 1337.2 1951.2 1336.13" fill="#105677" fill-rule="nonzero" opacity="1" stroke="none"/>
	</g>
</svg>
